<?xml version="1.0" encoding="UTF-8" standalone="no"?>
<svg xmlns:dc="http://purl.org/dc/elements/1.1/" xmlns:cc="http://creativecommons.org/ns#" xmlns:rdf="http://www.w3.org/1999/02/22-rdf-syntax-ns#" xmlns:svg="http://www.w3.org/2000/svg" xmlns="http://www.w3.org/2000/svg" xmlns:sodipodi="http://sodipodi.sourceforge.net/DTD/sodipodi-0.dtd" xmlns:inkscape="http://www.inkscape.org/namespaces/inkscape" sodipodi:docname="logo_dark_bg.svg" inkscape:version="1.0rc1 (09960d6f05, 2020-04-09)" id="svg8" version="1.1" viewBox="0 0 82 40" height="40mm" width="82mm">
  <defs id="defs2" />
  <sodipodi:namedview showgrid="false" inkscape:document-rotation="0" inkscape:current-layer="layer1" inkscape:document-units="mm" inkscape:cy="116.88" inkscape:cx="174.97" inkscape:zoom="2.8" inkscape:pageshadow="2" inkscape:pageopacity="0.0" borderopacity="1.0" bordercolor="#666666" pagecolor="#ffffff" id="base" />
  <metadata id="metadata5">
    <rdf:RDF>
      <cc:Work rdf:about="">
        <dc:format>image/svg+xml</dc:format>
        <dc:type rdf:resource="http://purl.org/dc/dcmitype/StillImage" />
        <dc:title></dc:title>
      </cc:Work>
    </rdf:RDF>
  </metadata>
  <g id="layer1" inkscape:groupmode="layer" inkscape:label="Layer 1">
    <text id="text12" y="35.422" x="7.9257" style="font-style:normal;font-variant:normal;font-weight:normal;font-stretch:normal;font-size:5.21155px;line-height:125%;font-family:'Ink Free';-inkscape-font-specification:'Ink Free';text-align:start;letter-spacing:0px;word-spacing:0px;text-anchor:start;fill:#5ea9e8;fill-opacity:1;stroke:none;stroke-width:0.2646px;stroke-linecap:butt;stroke-linejoin:miter;stroke-opacity:1;" xml:space="preserve"><tspan style="font-style:normal;font-variant:normal;font-weight:normal;font-stretch:normal;font-family:'Source Sans Pro';-inkscape-font-specification:'Source Sans Pro';fill:#5ea9e8;fill-opacity:1;stroke-width:0.2646px;" y="35.422" x="7.9257" id="tspan10" sodipodi:role="line">Open Data, Open Music</tspan></text>
    <text xml:space="preserve" style="font-style:normal;font-variant:normal;font-weight:900;font-stretch:normal;font-size:10.0288px;line-height:125%;font-family:'Source Sans Pro';-inkscape-font-specification:'Source Sans Pro Heavy';text-align:start;letter-spacing:0px;word-spacing:0px;text-anchor:start;fill:#97cbf7;fill-opacity:1;stroke:none;stroke-width:0.26459px;stroke-linecap:butt;stroke-linejoin:miter;stroke-opacity:1;" x="10.934" y="28.365" id="text12-1"><tspan sodipodi:role="line" id="tspan10-9" x="10.934" y="28.365" style="font-style:normal;font-variant:normal;font-weight:900;font-stretch:normal;font-family:'Source Sans Pro';-inkscape-font-specification:'Source Sans Pro Heavy';fill:#97cbf7;fill-opacity:1;stroke-width:0.26459px;">Sound of Cyber</tspan></text>
    <g style="opacity:1;fill:#ffffff" transform="rotate(-90,-3.1751,-3.1751)" id="g1064">
      <path sodipodi:nodetypes="ccccccccccccccccccccccccccccccccccccccccccccccccccccccc" inkscape:connector-curvature="0" d="m -36.596,5.2317 h 9.735 v 0.9922 h -9.735 z m 8.521,-1.1457 h -0.992 v 0.8215 h 0.992 z m 0,2.4613 h -0.992 V 7.369 h 0.992 z m -1.587,-3.8612 h -0.99 v 2.2214 h 0.99 z m 0,3.8612 h -0.99 v 2.2216 h 0.99 z M -31.25,1.1362 h -0.992 v 3.7713 h 0.992 z m 0,5.4111 h -0.992 v 3.7717 h 0.992 z m -1.587,-3.8612 h -0.992 v 2.2214 h 0.992 z m 0,3.8612 h -0.992 v 2.2216 h 0.992 z M -34.425,4.086 h -0.992 v 0.8215 h 0.992 z m 0,2.4613 h -0.992 V 7.369 h 0.992 z" style="color:#000000;font-style:normal;font-variant:normal;font-weight:normal;font-stretch:normal;font-size:medium;line-height:normal;font-family:sans-serif;font-variant-ligatures:normal;font-variant-position:normal;font-variant-caps:normal;font-variant-numeric:normal;font-variant-alternates:normal;font-variant-east-asian:normal;font-feature-settings:normal;font-variation-settings:normal;text-indent:0;text-align:start;text-decoration:none;text-decoration-line:none;text-decoration-style:solid;text-decoration-color:#000000;letter-spacing:normal;word-spacing:normal;text-transform:none;writing-mode:lr-tb;direction:ltr;text-orientation:mixed;dominant-baseline:auto;baseline-shift:baseline;text-anchor:start;white-space:normal;shape-padding:0;shape-margin:0;inline-size:0;clip-rule:nonzero;display:inline;overflow:visible;visibility:visible;isolation:auto;mix-blend-mode:normal;color-interpolation:sRGB;color-interpolation-filters:linearRGB;solid-color:#000000;solid-opacity:1;vector-effect:none;fill:#ffffff;fill-opacity:1;fill-rule:nonzero;stroke:none;stroke-width:0.26499;stroke-linecap:round;stroke-linejoin:miter;stroke-miterlimit:4;stroke-dasharray:none;stroke-dashoffset:0;stroke-opacity:1;color-rendering:auto;image-rendering:auto;shape-rendering:auto;text-rendering:auto;enable-background:accumulate;stop-color:#000000;stop-opacity:1" id="path1066" />
    </g>
    <g style="stroke-width:0.96546;fill:#ffffff" transform="matrix(1.0358,0,0,1.0358,-2.9313,22.452)" id="g1118">
      <path id="path1103" style="color:#000000;font-style:normal;font-variant:normal;font-weight:normal;font-stretch:normal;font-size:medium;line-height:normal;font-family:sans-serif;font-variant-ligatures:normal;font-variant-position:normal;font-variant-caps:normal;font-variant-numeric:normal;font-variant-alternates:normal;font-variant-east-asian:normal;font-feature-settings:normal;font-variation-settings:normal;text-indent:0;text-align:start;text-decoration:none;text-decoration-line:none;text-decoration-style:solid;text-decoration-color:#000000;letter-spacing:normal;word-spacing:normal;text-transform:none;writing-mode:lr-tb;direction:ltr;text-orientation:mixed;dominant-baseline:auto;baseline-shift:baseline;text-anchor:start;white-space:normal;shape-padding:0;shape-margin:0;inline-size:0;clip-rule:nonzero;display:inline;overflow:visible;visibility:visible;opacity:1;isolation:auto;mix-blend-mode:normal;color-interpolation:sRGB;color-interpolation-filters:linearRGB;solid-color:#000000;solid-opacity:1;vector-effect:none;fill:#ffffff;fill-opacity:1;fill-rule:nonzero;stroke:none;stroke-width:7.29785;stroke-linecap:round;stroke-linejoin:miter;stroke-miterlimit:4;stroke-dasharray:none;stroke-dashoffset:0;stroke-opacity:1;color-rendering:auto;image-rendering:auto;shape-rendering:auto;text-rendering:auto;enable-background:accumulate;stop-color:#000000;stop-opacity:1" d="m 160.85,-77.854 c -7.25,8.04 -12.1,18.374 -13.26,29.967 -1.15,11.533 1.54,22.565 7,31.846 l 1.51,-1.141 c -5.19,-8.908 -7.73,-19.471 -6.62,-30.519 1.11,-11.108 5.72,-21.009 12.63,-28.735 z m 4.51,5.09 c -6.04,6.924 -10.08,15.714 -11.06,25.543 -0.97,9.772 1.22,19.13 5.72,27.08 l 3.02,-2.281 c -3.96,-7.197 -5.86,-15.624 -4.98,-24.426 0.88,-8.858 4.45,-16.789 9.81,-23.084 z m 79.55,2.909 -1.5,1.117 c 5.41,9.011 8.07,19.778 6.96,31.047 a 0.94488,0.94488 0 0 0 0,0.05 c -1.12,11.225 -5.82,21.222 -12.85,28.9828 l 1.25,1.3945 C 246.09,-15.283 251,-25.628 252.2,-37.242 a 0.94488,0.94488 0 0 0 0,-0.07 v -0.09 a 0.94488,0.94488 0 0 0 0,-0.05 0.94488,0.94488 0 0 0 0,-0.201 c 1.14,-11.691 -1.65,-22.863 -7.29,-32.205 z m -73.61,3.791 c -4.46,5.443 -7.43,12.208 -8.18,19.72 -0.74,7.456 0.8,14.619 4.05,20.803 l 4.57,-3.451 c -2.45,-5.037 -3.57,-10.795 -2.98,-16.789 0.61,-6.053 2.89,-11.52 6.34,-15.998 z m 68.11,0.302 -2.96,2.201 c 4.2,7.335 6.24,16 5.34,25.063 -0.9,9.002 -4.57,17.044 -10.08,23.385 l 2.47,2.74 c 5.97,-6.788 10.02,-15.394 11.14,-25.023 a 1.8897,1.8897 0 0 0 0.23,-0.725 1.8897,1.8897 0 0 0 -0.1,-0.744 c 0.81,-9.729 -1.49,-19.026 -6.06,-26.897 z m -7.22,5.367 -4.45,3.313 c 2.7,5.206 3.97,11.229 3.34,17.514 -0.62,6.224 -3.02,11.829 -6.63,16.377 l 3.71,4.13 c 4.33,-5.222 7.28,-11.679 8.22,-18.851 a 2.8346,2.8346 0 0 0 0.34,-1.078 2.8346,2.8346 0 0 0 -0.11,-1.108 c 0.5,-7.295 -1.15,-14.279 -4.42,-20.297 z m -54.9,1.09 c -2.89,3.925 -4.81,8.646 -5.33,13.834 -0.51,5.135 0.41,10.089 2.43,14.475 l 6.22,-4.695 c -1.01,-2.799 -1.44,-5.857 -1.13,-9.028 0.33,-3.226 1.39,-6.184 2.98,-8.76 z m 47.65,4.305 -6.01,4.471 c 1.25,3.024 1.79,6.395 1.44,9.892 -0.34,3.437 -1.51,6.577 -3.28,9.264 l 5.02,5.584 c 2.72,-3.621 4.6,-7.935 5.34,-12.672 a 3.7795,3.7795 0 0 0 0.44,-1.424 3.7795,3.7795 0 0 0 -0.15,-1.459 c 0.22,-4.858 -0.8,-9.524 -2.8,-13.656 z" inkscape:connector-curvature="0" transform="scale(0.26458)" />
      <g aria-label="♬" id="text944" style="font-style:normal;font-variant:normal;font-weight:normal;font-stretch:normal;font-size:22.4722px;line-height:125%;font-family:'Source Sans Pro';-inkscape-font-specification:'Source Sans Pro';text-align:start;letter-spacing:0px;word-spacing:0px;text-anchor:start;fill:#ffffff;fill-opacity:1;stroke:none;stroke-width:0.25544px;stroke-linecap:butt;stroke-linejoin:miter;stroke-opacity:1" transform="translate(-38.799,-20.199)">
        <path d="M 94.482,6.4532 V 5.0487 L 90.181,3.9076 v 1.3167 z m 0.878,7.7248 q 0,2.721 -2.897,2.721 -0.966,0 -1.405,-0.351 -0.439,-0.351 -0.439,-0.878 0,-0.877 0.703,-1.404 1.229,-0.966 3.16,-0.79 V 7.8578 L 90.181,6.7166 v 6.0574 q 0,2.721 -2.897,2.721 -0.966,0 -1.405,-0.351 -0.439,-0.351 -0.439,-0.878 0,-0.878 0.703,-1.405 1.229,-0.965 3.16,-0.79 V 2.1519 L 95.36,3.732 Z" style="font-style:normal;font-variant:normal;font-weight:900;font-stretch:normal;font-family:'Source Sans Pro';-inkscape-font-specification:'Source Sans Pro Heavy';stroke-width:0.25544px;fill:#ffffff" id="path1112" inkscape:connector-curvature="0" />
      </g>
    </g>
  </g>
</svg>
